<?xml version="1.0" standalone="no"?>
<!DOCTYPE svg PUBLIC "-//W3C//DTD SVG 20010904//EN"
 "http://www.w3.org/TR/2001/REC-SVG-20010904/DTD/svg10.dtd">
<svg version="1.0" xmlns="http://www.w3.org/2000/svg"
 width="840.000000pt" height="859.000000pt" viewBox="0 0 840.000000 859.000000"
 preserveAspectRatio="xMidYMid meet">
<metadata>
Created by potrace 1.16, written by Peter Selinger 2001-2019
</metadata>
<g transform="translate(0.000000,859.000000) scale(0.100000,-0.100000)"
fill="#000000" stroke="none">
<path d="M3426 8497 c-9 -36 -7 -255 4 -352 14 -117 44 -243 78 -325 43 -104
42 -103 83 -86 46 19 167 43 259 51 l75 6 -115 -49 c-259 -110 -547 -278 -706
-412 l-62 -52 -78 -2 c-67 -2 -88 -7 -141 -34 -56 -29 -63 -36 -82 -86 -11
-30 -32 -132 -45 -226 -14 -94 -29 -177 -33 -183 -3 -7 -63 -84 -133 -172
-216 -273 -396 -520 -568 -780 -219 -331 -227 -346 -227 -449 1 -63 6 -93 25
-136 64 -146 153 -257 265 -330 82 -53 166 -79 280 -86 l90 -6 47 65 c59 80
223 253 340 358 l87 78 113 -6 c216 -11 512 26 689 86 185 62 312 143 438 277
75 81 98 94 69 41 -6 -12 -17 -58 -24 -102 -59 -366 -295 -786 -705 -1251 -54
-61 -175 -191 -270 -290 -94 -98 -209 -225 -254 -282 -297 -371 -476 -764
-540 -1188 -8 -54 -15 -123 -15 -151 l0 -53 -38 0 c-96 0 -199 -57 -228 -127
-10 -22 -14 -79 -14 -183 0 -201 16 -240 115 -286 34 -16 68 -24 106 -24 100
0 117 -7 149 -63 56 -98 60 -241 10 -368 -31 -79 -47 -96 -128 -139 -214 -115
-397 -269 -460 -387 -31 -59 -33 -60 -81 -66 -91 -11 -173 -65 -214 -142 -21
-37 -22 -56 -25 -292 l-3 -253 2580 0 2581 0 0 253 c0 262 -5 302 -43 358 -39
59 -88 79 -194 79 l-91 0 -31 54 c-66 117 -206 241 -411 364 -100 60 -118 75
-142 118 -66 119 -76 303 -22 411 l29 58 100 6 c153 9 210 31 255 96 24 34 25
45 28 197 2 103 -1 175 -8 201 -18 62 -87 125 -138 125 -16 0 -18 7 -15 63 14
238 65 444 247 995 153 463 209 648 256 845 181 764 134 1445 -147 2157 -151
382 -312 621 -632 940 -421 420 -893 669 -1455 770 -56 10 -102 17 -104 15 -1
-1 44 -29 100 -61 669 -377 1140 -759 1445 -1172 213 -287 428 -734 497 -1032
17 -78 56 -329 55 -362 0 -13 -18 37 -40 110 -176 596 -510 1170 -895 1542
-289 278 -656 497 -983 584 l-86 23 75 23 c41 12 79 25 83 29 16 16 -214 186
-586 433 -230 152 -282 183 -389 234 l-46 22 -6 -21z m-305 -1534 c46 -17 66
-29 58 -34 -34 -18 -146 -49 -180 -49 -64 0 -87 60 -42 106 21 20 65 14 164
-23z m294 -507 c90 -38 70 -152 -39 -209 -36 -18 -63 -22 -211 -27 -93 -3
-172 -5 -173 -4 -8 5 147 153 191 183 52 36 138 70 175 71 12 0 38 -6 57 -14z
m842 -274 c-69 -366 -336 -596 -803 -692 -107 -22 -175 -28 -425 -39 -255 -11
-251 -9 -474 -234 -186 -188 -242 -226 -339 -234 l-51 -5 60 30 c67 32 132 90
350 311 206 208 229 219 513 222 236 2 388 27 587 96 306 106 504 300 571 562
10 38 20 68 22 66 2 -2 -3 -39 -11 -83z m448 -644 c-52 -261 -171 -484 -412
-774 -100 -120 -391 -418 -731 -749 -156 -151 -239 -248 -337 -395 -181 -271
-293 -567 -352 -927 l-26 -163 -102 0 -102 0 17 98 c99 549 354 1032 741 1407
57 55 194 184 304 287 306 286 586 593 750 825 124 174 227 362 250 456 4 15
10 26 12 23 3 -3 -2 -42 -12 -88z m-1605 -3195 c-68 -35 -96 -71 -99 -130 -1
-10 -71 -13 -316 -13 -278 0 -315 2 -315 15 0 28 29 73 63 99 62 48 117 55
431 55 l290 1 -54 -27z m2840 8 c54 -21 98 -58 120 -101 11 -22 20 -42 20 -45
0 -3 -283 -5 -630 -5 l-629 0 -10 38 c-15 54 -68 100 -140 123 -14 4 258 7
604 6 505 -2 637 -5 665 -16z m-3111 -639 c69 -135 71 -337 5 -464 -14 -28
-16 -28 -113 -28 l-99 0 25 68 c46 127 42 274 -11 405 l-24 57 99 0 99 0 19
-38z m243 -1013 c-59 -29 -99 -69 -107 -106 -2 -10 -7 -28 -12 -41 l-9 -23
-514 1 c-282 0 -516 3 -519 5 -11 12 40 95 77 126 80 67 81 67 641 68 l504 1
-61 -31z m3325 2 c55 -24 117 -84 133 -127 22 -58 78 -54 -774 -54 l-783 0
-13 46 c-18 63 -53 102 -125 136 l-60 28 785 -2 785 -3 52 -24z"/>
<path d="M3255 8099 c-91 -29 -246 -106 -252 -124 -2 -8 206 -377 221 -393 5
-4 266 127 266 133 0 3 -16 37 -35 75 -37 73 -78 203 -90 283 -4 26 -10 49
-14 51 -3 2 -47 -9 -96 -25z"/>
</g>
</svg>
