<?xml version="1.0" standalone="no"?>
<!DOCTYPE svg PUBLIC "-//W3C//DTD SVG 20010904//EN"
 "http://www.w3.org/TR/2001/REC-SVG-20010904/DTD/svg10.dtd">
<svg version="1.0" xmlns="http://www.w3.org/2000/svg"
 width="860.000000pt" height="885.000000pt" viewBox="0 0 860.000000 885.000000"
 preserveAspectRatio="xMidYMid meet">
<metadata>
Created by potrace 1.16, written by Peter Selinger 2001-2019
</metadata>
<g transform="translate(0.000000,885.000000) scale(0.100000,-0.100000)"
fill="#000000" stroke="none">
<path d="M4186 8409 c-3 -17 -6 -57 -6 -89 0 -31 -3 -104 -6 -162 l-7 -106
-282 -7 c-156 -4 -288 -11 -294 -14 -8 -5 -11 -45 -9 -127 l3 -119 160 -8 c88
-4 220 -10 293 -13 l132 -6 0 -352 0 -352 -57 -28 c-251 -123 -424 -326 -526
-619 l-32 -92 0 -265 c1 -348 5 -370 164 -894 29 -93 50 -176 49 -185 -2 -9
-37 23 -93 85 -150 166 -384 395 -500 487 -410 328 -867 555 -1305 648 -151
33 -420 33 -570 0 -398 -85 -722 -346 -878 -706 -81 -186 -105 -299 -106 -485
-1 -164 14 -245 71 -400 77 -208 159 -342 436 -713 280 -373 380 -524 639
-957 117 -195 116 -193 132 -325 68 -537 74 -805 27 -1189 -36 -301 -37 -318
-13 -338 25 -23 200 -109 343 -169 407 -171 857 -259 1524 -299 453 -27 1382
-22 1815 10 696 52 1136 162 1618 404 l112 56 0 46 c0 24 -14 161 -32 302 -38
317 -41 489 -9 822 44 480 42 472 143 635 30 50 92 153 138 230 149 251 261
414 552 805 258 347 357 514 428 727 34 103 60 255 60 353 0 161 -51 363 -135
535 -166 338 -472 573 -855 656 -150 33 -418 33 -570 0 -443 -94 -882 -312
-1299 -644 -128 -103 -344 -312 -506 -491 -55 -61 -91 -94 -93 -85 -1 8 27
112 63 230 144 469 149 501 150 844 l0 270 -32 92 c-100 284 -265 487 -484
593 l-92 45 7 245 c3 135 6 295 6 356 l0 112 118 6 c64 3 192 8 285 12 l167 6
0 123 c0 109 -2 124 -17 129 -10 2 -138 8 -285 12 l-266 6 -6 127 c-4 69 -9
156 -12 194 l-6 67 -123 0 -122 0 -7 -31z m268 -1504 c32 -8 82 -31 111 -50
71 -47 194 -178 237 -251 117 -199 158 -443 127 -745 -23 -229 -80 -432 -337
-1199 -210 -624 -277 -815 -288 -813 -12 2 -74 179 -273 778 -313 940 -346
1064 -358 1337 -15 352 75 619 273 809 84 80 138 115 207 134 70 19 229 19
301 0z m-2619 -835 c217 -31 518 -141 770 -282 448 -250 894 -660 1166 -1071
84 -126 172 -284 213 -383 65 -158 159 -544 191 -789 9 -66 18 -132 21 -147
l6 -28 112 0 113 0 12 148 c20 245 111 631 195 830 70 167 226 418 364 587
401 489 933 876 1442 1048 253 86 354 101 648 94 253 -5 299 -14 477 -101 130
-64 213 -125 316 -233 178 -187 275 -421 286 -693 6 -161 -11 -282 -58 -416
-67 -190 -127 -287 -414 -674 -303 -408 -404 -559 -610 -910 -170 -291 -233
-366 -305 -362 -19 1 -136 29 -260 62 -620 166 -1196 259 -1740 280 -1036 40
-1738 -32 -2670 -274 -135 -35 -256 -67 -270 -70 -63 -14 -142 72 -276 299
-243 411 -352 576 -630 950 -301 405 -373 520 -434 703 -88 262 -77 548 29
804 63 150 199 323 339 429 112 85 284 164 422 193 78 17 440 21 545 6z m2905
-3680 c541 -31 1011 -122 1623 -314 271 -86 380 -131 416 -172 17 -19 34 -46
37 -60 10 -39 -13 -99 -48 -129 -29 -24 -38 -27 -84 -21 -29 3 -129 33 -222
65 -539 188 -1106 314 -1582 352 -200 16 -945 16 -1150 0 -462 -36 -1086 -175
-1582 -353 -188 -67 -235 -80 -258 -73 -10 3 -37 26 -59 50 -47 51 -53 90 -22
142 38 61 198 129 569 243 504 154 995 242 1502 269 215 12 661 12 860 1z m5
-690 c505 -27 1017 -124 1560 -295 289 -91 424 -144 467 -183 62 -56 64 -128
3 -189 -47 -47 -78 -44 -300 32 -509 175 -984 287 -1435 340 -287 34 -885 40
-1300 14 -461 -29 -1026 -156 -1644 -369 -109 -38 -187 -59 -201 -56 -28 7
-93 78 -101 111 -24 97 57 150 408 266 585 195 1114 298 1673 328 223 12 654
12 870 1z"/>
<path d="M4150 6678 c-75 -37 -164 -134 -210 -230 -123 -259 -116 -573 25
-1123 77 -299 238 -798 311 -962 24 -54 26 -57 39 -39 21 28 66 149 155 417
203 606 280 962 280 1292 0 273 -56 445 -183 564 -96 90 -130 103 -263 103
-92 0 -116 -3 -154 -22z"/>
<path d="M1387 5930 c-579 -104 -885 -674 -685 -1275 67 -201 162 -359 447
-745 214 -289 322 -443 461 -660 128 -200 153 -230 190 -230 14 0 100 21 191
46 635 176 1263 275 1846 291 l243 6 -4 31 c-3 17 -8 67 -11 111 -24 318 -182
752 -384 1056 -189 285 -491 597 -807 837 -228 172 -552 356 -769 437 -55 21
-152 51 -215 67 -102 27 -135 31 -285 34 -93 1 -192 -1 -218 -6z"/>
<path d="M6846 5930 c-617 -96 -1479 -712 -1918 -1370 -209 -314 -377 -794
-381 -1090 l-2 -105 262 -11 c290 -13 339 -16 598 -45 411 -45 932 -154 1317
-274 91 -29 111 -25 155 32 17 21 84 121 150 223 116 180 215 322 477 680 296
404 393 582 441 809 59 281 1 595 -149 804 -110 155 -286 273 -486 329 -59 16
-111 21 -240 24 -91 1 -191 -1 -224 -6z"/>
</g>
</svg>
