<?xml version="1.0" standalone="no"?>
<!DOCTYPE svg PUBLIC "-//W3C//DTD SVG 20010904//EN"
 "http://www.w3.org/TR/2001/REC-SVG-20010904/DTD/svg10.dtd">
<svg version="1.0" xmlns="http://www.w3.org/2000/svg"
 width="741.000000pt" height="946.000000pt" viewBox="0 0 741.000000 946.000000"
 preserveAspectRatio="xMidYMid meet">

<g transform="translate(0.000000,946.000000) scale(0.100000,-0.100000)"
fill="#000000" stroke="none">
<path d="M3660 9447 c-33 -17 -53 -60 -45 -97 8 -37 49 -70 87 -70 41 0 88 48
88 90 0 22 -9 41 -29 61 -32 31 -61 36 -101 16z"/>
<path d="M1484 9391 c-46 -28 -64 -59 -64 -111 0 -185 291 -247 600 -128 61
24 78 34 60 36 -115 11 -186 41 -313 132 -46 33 -100 67 -120 75 -51 21 -125
19 -163 -4z"/>
<path d="M5740 9386 c-25 -13 -87 -53 -138 -89 -99 -70 -152 -93 -247 -105
l-60 -8 90 -33 c134 -49 215 -64 320 -58 114 6 191 34 238 86 123 137 -32 295
-203 207z"/>
<path d="M1046 9351 c-28 -52 -64 -196 -77 -298 -15 -128 -2 -231 41 -320 51
-104 142 -160 275 -170 71 -6 78 -8 113 -43 62 -63 131 -73 572 -90 151 -5
322 -16 379 -25 539 -78 951 -321 1290 -762 l64 -82 40 57 c233 329 518 557
858 687 117 45 307 91 454 111 69 9 259 19 445 24 179 5 350 14 380 21 71 15
123 41 144 73 14 23 24 26 71 26 30 0 85 10 122 22 89 29 160 97 192 183 32
83 39 230 17 351 -13 79 -71 264 -81 264 -2 0 -13 -21 -24 -46 -24 -54 -97
-157 -137 -196 -39 -36 -137 -94 -199 -117 -209 -79 -513 -71 -946 24 -232 51
-358 72 -532 91 -192 20 -587 23 -710 5 -72 -11 -106 -11 -185 0 -138 18 -531
15 -720 -5 -155 -17 -266 -36 -577 -101 -246 -50 -370 -66 -540 -66 -353 0
-559 104 -680 344 l-34 68 -15 -30z m409 -512 c22 -6 60 -18 85 -27 l45 -17
-65 -7 c-36 -3 -100 -20 -143 -37 -91 -36 -125 -39 -161 -10 -33 26 -33 44 3
80 28 27 34 29 113 29 46 0 101 -5 123 -11z m4714 -4 c69 -35 46 -115 -34
-115 -16 0 -66 14 -110 32 -45 17 -109 34 -145 37 l-65 6 80 27 c94 32 226 38
274 13z m-4127 -83 c9 -9 6 -12 -17 -12 -36 0 -108 -33 -189 -85 -74 -47 -125
-56 -155 -26 -52 52 -2 114 109 135 51 9 239 1 252 -12z m3628 -4 c49 -21 70
-44 70 -78 0 -34 -31 -60 -70 -60 -15 0 -53 16 -86 36 -121 75 -140 84 -187
90 -49 7 -52 18 -7 27 52 11 245 0 280 -15z m-3172 -30 c29 -6 55 -15 57 -18
3 -4 -19 -10 -49 -13 -35 -3 -83 -21 -143 -51 -129 -65 -199 -59 -191 17 5 47
44 70 136 77 84 7 110 5 190 -12z m2675 0 c30 -12 67 -53 67 -74 0 -8 -9 -23
-20 -34 -32 -32 -78 -25 -191 30 -75 37 -114 50 -148 51 l-46 1 34 14 c67 30
241 36 304 12z m-1400 -89 c12 -6 33 -22 47 -34 14 -12 37 -25 52 -29 39 -9
95 -61 107 -99 6 -18 9 -84 8 -149 -2 -114 -3 -117 -33 -155 -18 -21 -49 -45
-72 -53 -22 -8 -48 -22 -59 -31 -33 -30 -82 -49 -123 -49 -46 0 -72 11 -110
45 -14 12 -42 28 -63 35 -78 25 -128 111 -110 189 5 21 5 53 -1 78 -18 81 41
173 123 189 17 4 37 15 45 25 30 44 136 65 189 38z"/>
<path d="M3640 8489 c-59 -24 -100 -85 -100 -149 0 -81 43 -138 120 -161 80
-24 163 21 195 105 29 76 -12 170 -87 201 -43 17 -91 19 -128 4z"/>
<path d="M586 8889 c-33 -26 -36 -79 -6 -109 48 -48 139 -2 126 63 -12 62 -70
85 -120 46z"/>
<path d="M6726 8889 c-51 -40 -23 -129 42 -129 60 0 95 56 68 109 -24 46 -67
54 -110 20z"/>
<path d="M405 8535 c-36 -35 -34 -88 4 -126 34 -33 49 -35 97 -13 39 19 56 63
41 107 -20 59 -98 77 -142 32z"/>
<path d="M6875 8534 c-67 -73 16 -185 103 -140 16 8 35 28 41 44 37 88 -80
165 -144 96z"/>
<path d="M911 8509 c-5 -13 -19 -48 -31 -78 -77 -195 -78 -350 -4 -589 l27
-87 22 105 c12 58 27 123 35 145 42 128 124 227 233 279 l68 34 -47 7 c-115
17 -209 75 -265 164 -28 43 -29 43 -38 20z"/>
<path d="M6470 8509 c-50 -93 -166 -171 -277 -185 l-56 -7 62 -28 c34 -16 80
-42 101 -59 85 -67 152 -209 181 -382 7 -43 16 -78 19 -78 7 0 36 94 65 209
21 82 21 239 1 319 -9 33 -31 100 -50 148 -32 83 -34 86 -46 63z"/>
<path d="M1567 8286 c-79 -29 -160 -115 -173 -182 l-6 -34 -59 0 c-162 0 -292
-118 -306 -280 -6 -63 15 -150 46 -189 l18 -24 -45 -31 c-56 -37 -107 -103
-122 -154 -27 -99 0 -211 70 -280 l33 -33 -40 -42 c-65 -67 -78 -100 -78 -197
0 -68 5 -93 22 -125 26 -49 85 -106 135 -131 l37 -19 -29 -44 c-79 -117 -65
-257 35 -358 50 -49 121 -83 177 -83 17 0 17 -2 3 -36 -23 -56 -19 -159 9
-219 48 -105 168 -174 280 -162 28 3 58 8 67 12 13 5 17 -3 22 -40 12 -84 67
-159 151 -203 72 -38 178 -37 253 1 28 15 54 31 58 37 9 14 25 13 25 -2 1 -26
71 -108 113 -132 24 -15 69 -31 100 -36 102 -19 220 29 275 112 13 21 27 38
30 38 2 0 20 -13 38 -30 105 -92 301 -68 389 48 41 53 68 136 63 193 -3 38 -1
42 40 66 l42 25 0 -28 c0 -74 57 -217 128 -321 72 -106 243 -248 322 -268 30
-7 116 41 210 117 117 95 226 273 256 418 8 41 16 75 17 76 1 1 19 -9 40 -22
36 -24 37 -26 37 -87 1 -107 55 -193 153 -243 94 -48 206 -39 292 24 l39 28
61 -61 c47 -48 71 -65 110 -75 138 -38 276 17 336 133 20 37 21 38 42 22 117
-85 266 -82 364 8 52 47 93 125 93 176 0 30 2 33 23 27 58 -17 116 -18 169 -2
166 48 247 220 183 388 -5 12 4 17 32 23 211 38 307 281 178 451 l-24 31 50
24 c96 44 151 135 151 248 1 82 -24 143 -80 199 l-40 40 29 28 c16 16 41 52
56 82 64 130 9 302 -117 367 l-29 15 29 63 c95 199 -36 420 -257 435 l-71 5
-16 42 c-26 66 -70 119 -128 151 -47 26 -63 29 -138 29 -68 0 -93 -5 -126 -22
-39 -21 -101 -81 -122 -118 -9 -17 -13 -16 -43 17 -58 61 -112 83 -204 83 -70
-1 -87 -4 -134 -30 -55 -30 -117 -99 -128 -143 l-6 -23 -31 29 c-98 93 -243
93 -340 -1 -24 -23 -45 -48 -48 -56 -4 -13 -10 -12 -46 2 -67 27 -130 22 -203
-16 -70 -36 -117 -96 -128 -165 l-6 -37 -70 0 c-58 0 -78 -5 -117 -28 -90 -53
-131 -159 -97 -255 10 -29 8 -36 -27 -84 -50 -71 -102 -183 -135 -292 -15 -50
-29 -84 -32 -76 -3 8 -17 54 -31 103 -30 97 -88 216 -135 276 -28 35 -30 42
-20 68 6 15 11 51 11 78 1 127 -118 229 -247 209 l-42 -6 -8 38 c-28 150 -182
239 -325 189 l-42 -15 -40 45 c-96 109 -232 124 -344 39 -25 -19 -47 -34 -49
-32 -1 2 -10 17 -18 34 -27 54 -68 94 -120 120 -107 55 -226 39 -315 -41 l-50
-45 -34 47 c-49 68 -121 105 -212 110 -45 2 -85 -2 -109 -11z m413 -326 c166
-16 452 -66 626 -110 477 -121 770 -317 904 -604 130 -276 144 -700 34 -992
-38 -101 -83 -184 -100 -184 -26 0 -88 -37 -120 -72 -34 -35 -67 -95 -78 -139
-11 -50 -184 -145 -349 -193 -138 -40 -251 -56 -398 -56 -199 0 -370 35 -538
111 -169 77 -371 246 -479 402 -111 161 -201 385 -238 592 -21 121 -24 391 -5
510 28 182 94 412 181 637 l42 107 71 3 c117 5 324 -1 447 -12z m3962 1 c13
-12 118 -304 152 -424 68 -239 81 -329 80 -557 0 -171 -4 -221 -22 -305 -126
-579 -493 -955 -1025 -1050 -118 -21 -389 -16 -501 9 -156 35 -302 94 -417
167 -38 24 -49 38 -57 72 -23 89 -106 178 -180 193 -28 6 -36 16 -66 78 -84
174 -119 339 -119 561 0 206 31 370 101 530 106 244 356 439 717 560 272 91
702 166 1015 178 95 4 314 -4 322 -12z m-2178 -1696 c15 -38 43 -98 62 -132
l35 -62 -38 -16 c-82 -35 -165 -35 -245 -1 l-37 16 49 92 c46 88 73 157 101
258 l12 45 17 -65 c10 -36 29 -96 44 -135z"/>
<path d="M1720 7923 c0 -3 16 -39 36 -80 41 -86 138 -194 228 -255 76 -53 239
-129 348 -165 49 -15 88 -30 88 -33 0 -3 -33 -13 -73 -22 -39 -10 -115 -39
-168 -64 l-97 -46 -48 23 c-102 50 -289 261 -369 419 -27 52 -29 53 -36 30 -4
-14 -7 -63 -8 -109 -1 -67 5 -100 29 -172 27 -82 69 -169 112 -231 10 -14 18
-29 18 -32 0 -22 -213 102 -288 168 l-34 29 7 -39 c16 -92 86 -197 190 -283
l40 -33 -58 7 c-68 8 -166 35 -232 64 -26 11 -50 21 -52 21 -11 0 44 -79 86
-123 49 -51 156 -109 264 -142 55 -16 59 -19 53 -44 -33 -143 -38 -192 -33
-296 8 -138 25 -204 88 -331 77 -157 216 -296 376 -377 149 -76 398 -108 562
-73 344 73 602 339 662 680 14 85 7 289 -14 366 -8 30 -20 84 -27 120 -18 100
-79 218 -157 300 -151 161 -316 236 -813 368 -334 90 -470 154 -602 284 -43
42 -78 74 -78 71z m1058 -629 c148 -50 253 -106 325 -173 364 -341 316 -923
-99 -1200 -380 -254 -882 -118 -1085 294 -58 120 -81 214 -81 345 0 122 21
219 70 322 162 345 541 524 870 412z"/>
<path d="M2503 7015 c-131 -36 -268 -140 -337 -254 -60 -99 -79 -171 -79 -296
0 -92 4 -121 25 -177 37 -100 85 -173 155 -238 233 -214 594 -196 806 40 46
51 110 167 123 224 6 26 5 27 -14 17 -52 -28 -124 -1 -142 54 -29 87 59 162
141 121 18 -9 33 -16 34 -16 3 0 -13 104 -20 135 -13 49 -71 157 -108 200
l-34 40 -1 -59 c-1 -182 -220 -270 -344 -139 -97 102 -64 264 65 323 56 25 33
34 -103 37 -79 2 -132 -2 -167 -12z"/>
<path d="M5593 7840 c-136 -129 -270 -187 -704 -304 -292 -78 -423 -129 -549
-211 -180 -116 -279 -260 -315 -460 -8 -44 -22 -114 -31 -155 -19 -91 -14
-262 11 -360 75 -286 293 -510 585 -602 65 -20 95 -23 230 -23 120 0 171 5
225 19 215 58 386 180 502 358 91 139 135 287 134 459 0 80 -19 217 -37 262
-3 9 21 21 68 36 156 50 271 129 318 220 l21 42 -38 -17 c-62 -27 -192 -64
-252 -71 l-56 -6 52 42 c53 42 123 122 148 170 15 31 46 141 38 141 -3 0 -27
-20 -55 -44 -51 -44 -162 -112 -231 -141 l-39 -16 27 43 c48 79 94 174 116
244 24 72 31 200 15 259 l-7 29 -32 -59 c-51 -94 -133 -208 -205 -283 -63 -66
-181 -152 -207 -152 -7 0 -51 20 -99 44 -48 25 -120 52 -161 62 -41 10 -75 21
-75 24 0 4 19 12 43 19 72 22 249 97 315 135 146 83 244 181 303 305 16 35 29
65 27 66 -2 2 -40 -32 -85 -75z m-578 -541 c499 -153 710 -730 425 -1162 -94
-143 -242 -257 -405 -313 -71 -25 -95 -28 -210 -28 -151 0 -218 14 -341 75
-197 96 -345 277 -405 494 -30 108 -30 276 -1 386 57 214 204 395 387 479 84
39 220 86 270 94 63 9 211 -4 280 -25z"/>
<path d="M4583 7006 c-231 -76 -378 -267 -390 -506 -7 -119 7 -188 58 -291
148 -295 529 -399 808 -220 102 66 202 196 235 305 13 41 7 62 -9 36 -3 -5
-24 -10 -46 -10 -31 0 -47 7 -70 29 -84 85 31 224 125 150 l26 -20 0 28 c-1
90 -64 245 -134 327 l-34 40 5 -47 c14 -125 -107 -244 -226 -222 -107 20 -173
97 -173 200 0 88 59 172 136 191 54 13 -3 28 -124 31 -100 3 -124 0 -187 -21z"/>
<path d="M365 8148 c-75 -41 -72 -156 5 -188 71 -29 145 22 145 101 0 73 -86
123 -150 87z"/>
<path d="M6945 8149 c-75 -43 -74 -149 2 -188 77 -39 170 41 143 124 -6 18
-19 40 -30 50 -23 21 -89 29 -115 14z"/>
<path d="M424 7686 c-75 -33 -99 -125 -48 -185 28 -33 77 -52 118 -44 35 7 83
55 91 93 20 91 -77 173 -161 136z"/>
<path d="M6903 7693 c-12 -2 -36 -20 -53 -39 -81 -93 9 -228 125 -188 146 50
80 257 -72 227z"/>
<path d="M613 7209 c-81 -23 -112 -136 -55 -199 49 -55 128 -57 183 -4 40 38
46 83 20 138 -17 34 -31 48 -62 60 -44 18 -42 18 -86 5z"/>
<path d="M6713 7209 c-67 -19 -104 -113 -70 -178 44 -86 180 -83 222 5 31 66
6 135 -59 165 -46 21 -48 21 -93 8z"/>
<path d="M860 6583 c-7 -32 -30 -107 -52 -168 -109 -300 -108 -297 -108 -376
0 -64 5 -85 30 -136 62 -124 190 -203 339 -211 l86 -5 -55 60 c-31 33 -73 92
-93 131 -66 125 -86 230 -118 620 -6 78 -13 142 -15 142 -1 0 -8 -26 -14 -57z"/>
<path d="M6527 6615 c-4 -16 -14 -116 -22 -221 -29 -374 -75 -516 -208 -651
l-51 -53 70 0 c119 0 220 45 302 134 65 70 87 126 86 216 0 78 -6 97 -109 375
-20 55 -42 129 -49 165 -11 57 -14 61 -19 35z"/>
<path d="M467 6140 c-61 -48 -182 -255 -265 -450 -133 -316 -195 -614 -196
-935 0 -200 9 -277 59 -475 123 -491 367 -986 669 -1360 88 -109 173 -190 197
-190 30 0 153 123 256 255 99 127 226 318 303 455 29 52 53 96 55 97 1 2 26
-15 56 -38 144 -108 418 -255 603 -324 54 -20 99 -35 100 -33 2 2 10 37 19 78
43 196 58 344 58 575 -1 453 -95 763 -339 1115 -86 123 -228 269 -321 330 -40
27 -108 61 -150 76 -42 16 -102 45 -134 65 -79 51 -172 88 -372 149 -93 28
-202 68 -242 87 -90 44 -167 117 -210 199 -34 64 -73 204 -73 264 -1 81 -23
99 -73 60z m288 -685 c61 -29 170 -70 242 -91 73 -22 133 -42 133 -46 0 -15
-70 -60 -126 -81 -47 -17 -81 -22 -169 -22 -138 0 -185 20 -216 91 -22 54 -89
270 -89 291 0 8 24 -7 58 -37 36 -33 96 -71 167 -105z m-392 127 c-4 -15 4
-114 24 -309 5 -46 1 -61 -31 -124 -39 -76 -126 -193 -151 -203 -18 -7 -18
-12 -1 104 28 179 136 550 161 550 2 0 1 -8 -2 -18z m982 -409 c-10 -57 -48
-108 -97 -132 -52 -25 -95 -27 -145 -6 l-36 15 29 31 c43 46 108 88 167 109
81 29 91 27 82 -17z m215 -4 c36 -17 80 -42 99 -56 29 -23 33 -30 28 -60 -12
-74 -97 -142 -176 -143 -37 0 -111 31 -132 56 -10 12 -7 20 14 42 30 31 66
107 67 139 0 30 10 53 24 53 6 0 40 -14 76 -31z m-677 -191 l-26 -76 -32 15
c-21 10 -40 31 -54 59 -26 56 -27 54 7 54 15 0 50 6 77 14 28 7 51 13 51 12 1
-1 -9 -36 -23 -78z m1025 -121 c20 -28 28 -47 20 -47 -28 1 -95 39 -130 75
l-37 37 17 35 17 35 40 -44 c22 -25 55 -66 73 -91z m-1418 74 c24 -75 -10
-317 -63 -448 -30 -73 -78 -146 -127 -190 -42 -39 -46 -40 -53 -10 -39 159
-58 280 -63 397 l-6 135 73 28 c41 15 106 49 144 76 39 27 73 49 76 50 3 0 12
-17 19 -38z m572 -8 c24 -10 70 -18 105 -18 l63 0 0 -35 c-1 -98 -123 -194
-209 -164 -22 8 -27 16 -29 54 -4 42 15 180 24 180 2 0 23 -8 46 -17z m453
-126 c39 1 81 4 95 5 24 3 25 1 23 -49 -5 -128 -111 -223 -247 -223 -52 0
-122 29 -156 65 l-22 24 50 50 c44 44 67 86 88 158 2 9 17 6 51 -10 37 -16 64
-21 118 -20z m306 -74 c38 -19 74 -28 126 -31 70 -4 73 -6 93 -39 23 -39 25
-66 8 -114 -54 -159 -265 -202 -375 -75 l-33 36 39 51 c39 51 71 131 71 175 0
30 6 30 71 -3z m-1146 -418 c-1 -216 -18 -309 -77 -432 -34 -70 -126 -180
-138 -166 -21 24 -164 393 -175 454 -6 33 -4 35 37 55 97 48 201 171 269 320
l32 69 26 -55 c25 -54 26 -60 26 -245z m570 140 c55 -27 69 -30 162 -30 l101
1 6 -28 c13 -63 -23 -149 -81 -197 -61 -51 -149 -65 -218 -37 -27 12 -41 29
-66 79 l-32 64 27 66 c14 36 26 77 26 92 0 15 3 25 8 23 4 -2 34 -17 67 -33z
m925 -96 c10 -35 17 -65 15 -67 -8 -8 -48 11 -80 40 l-34 30 32 43 c36 49 37
48 67 -46z m-475 -49 c41 -20 66 -24 137 -25 l88 0 0 -44 c0 -96 -51 -180
-133 -220 -86 -41 -215 -21 -275 42 l-22 23 50 53 c47 51 90 137 90 182 0 11
3 19 8 17 4 -2 30 -15 57 -28z m400 -115 c27 -14 66 -28 86 -31 l38 -6 7 -67
c15 -128 12 -161 -16 -182 -44 -33 -111 -44 -165 -29 -47 13 -115 62 -115 82
0 6 14 27 30 48 38 47 67 113 76 168 4 23 7 42 8 42 0 0 23 -11 51 -25z
m-1267 -217 c-10 -137 -34 -299 -63 -430 -29 -128 -64 -248 -73 -248 -12 1
-192 316 -192 335 0 6 15 19 33 30 98 58 214 208 264 341 16 41 30 74 33 74 3
0 2 -46 -2 -102z m860 -93 l104 0 -4 -55 c-5 -68 -42 -127 -99 -159 l-40 -23
-52 41 c-29 23 -76 63 -106 89 l-54 49 12 59 13 60 61 -31 c56 -28 70 -30 165
-30z m410 -128 c73 -2 77 -3 80 -26 14 -96 -73 -191 -173 -191 -46 0 -108 32
-134 69 -26 36 -26 41 -2 83 11 18 24 52 30 75 l11 42 55 -26 c42 -19 74 -25
133 -26z m-745 -93 c18 -9 34 -18 36 -20 5 -4 -119 -221 -186 -323 -30 -46
-56 -81 -59 -78 -3 3 0 23 5 45 22 80 41 250 41 370 l0 123 66 -51 c36 -28 80
-58 97 -66z m-397 -404 c-3 -124 -9 -240 -13 -259 l-9 -35 -67 85 c-37 46 -80
101 -94 122 l-27 38 56 107 c31 59 71 143 88 187 57 144 52 139 62 55 5 -41 7
-176 4 -300z m1262 168 c-7 -51 -16 -88 -22 -88 -6 0 -47 17 -90 38 l-79 37
61 19 c35 10 77 32 99 51 21 18 39 32 40 32 0 -1 -4 -41 -9 -89z"/>
<path d="M6875 6148 c-2 -7 -6 -42 -10 -78 -22 -227 -113 -370 -289 -455 -50
-24 -156 -62 -236 -85 -80 -23 -179 -56 -220 -73 -77 -32 -185 -91 -195 -106
-3 -5 -20 -13 -38 -16 -51 -11 -149 -59 -218 -106 -209 -141 -453 -495 -553
-801 -112 -341 -124 -809 -31 -1216 19 -84 4 -81 150 -24 176 68 399 189 549
296 43 31 80 56 81 54 1 -2 14 -26 29 -55 138 -276 483 -727 573 -749 21 -6
34 3 85 52 116 114 291 352 405 549 222 385 394 866 438 1230 53 429 -98 1045
-351 1438 -79 122 -155 188 -169 145z m-19 -631 c-14 -52 -39 -131 -56 -175
-29 -76 -34 -82 -78 -104 -41 -20 -62 -23 -157 -23 -91 1 -120 5 -169 24 -54
22 -127 74 -116 84 3 2 68 23 145 46 77 23 176 60 220 80 82 39 198 120 218
152 20 33 19 12 -7 -84z m280 -171 c43 -148 90 -406 73 -406 -20 0 -118 130
-159 210 -37 72 -40 94 -24 187 8 49 14 131 15 183 l0 95 30 -75 c16 -41 45
-129 65 -194z m-950 -175 c59 -27 144 -97 144 -118 0 -14 -55 -33 -94 -33 -37
0 -105 30 -128 56 -22 25 -48 87 -48 114 0 19 4 21 33 15 17 -4 59 -19 93 -34z
m-238 -30 c8 -37 26 -79 48 -111 l36 -52 -22 -23 c-12 -12 -42 -29 -67 -36
-100 -28 -200 34 -223 138 -7 31 -5 34 48 69 51 34 133 72 157 74 6 0 17 -27
23 -59z m679 -111 c13 0 23 -6 23 -13 0 -28 -33 -79 -64 -98 -39 -24 -46 -24
-46 -1 0 11 -9 45 -20 77 -11 32 -20 59 -20 60 0 1 23 -4 52 -11 29 -8 63 -14
75 -14z m-998 -76 c13 -35 12 -37 -20 -70 -33 -34 -103 -74 -128 -74 -10 0 -8
7 5 28 24 38 118 152 124 152 4 0 12 -16 19 -36z m1369 -26 c54 -40 104 -67
195 -102 43 -17 43 -16 27 -209 -10 -119 -53 -334 -70 -351 -15 -15 -112 94
-146 164 -56 115 -94 285 -94 422 0 56 14 118 27 118 1 0 29 -19 61 -42z
m-597 -19 c4 -13 7 -63 8 -111 1 -86 0 -88 -24 -94 -82 -20 -185 50 -205 140
-12 56 -6 64 48 59 29 -2 66 4 97 15 61 23 68 22 76 -9z m-254 -237 c53 -53
54 -55 36 -75 -10 -11 -40 -30 -68 -43 -161 -76 -345 40 -345 218 l0 40 43 -9
c67 -13 149 -7 198 14 l44 20 19 -56 c14 -40 35 -71 73 -109z m-445 -83 c15
-25 34 -51 42 -59 22 -18 20 -34 -11 -71 -37 -44 -96 -69 -165 -69 -93 0 -134
24 -189 109 -35 54 -38 111 -10 157 18 30 23 32 88 36 51 2 84 11 128 33 l60
30 15 -60 c9 -33 27 -81 42 -106z m1249 -263 c33 -36 87 -82 120 -102 32 -20
59 -38 59 -40 0 -24 -110 -318 -163 -434 l-24 -55 -45 47 c-78 82 -135 214
-158 362 -6 38 -11 139 -11 226 1 148 2 160 27 215 l27 58 54 -105 c35 -69 74
-129 114 -172z m-710 104 c5 -22 19 -61 30 -85 l21 -45 -30 -64 c-34 -73 -51
-85 -128 -93 -72 -8 -131 15 -182 71 -52 57 -73 129 -56 192 5 20 9 21 42 12
62 -17 162 -5 228 29 32 16 61 28 62 27 2 -1 8 -21 13 -44z m-924 -51 l24 -26
-33 -28 c-37 -31 -75 -51 -84 -43 -6 6 23 112 38 142 10 19 11 19 21 0 5 -10
21 -31 34 -45z m463 -82 c0 -38 49 -130 93 -175 49 -50 46 -61 -30 -104 -61
-34 -146 -40 -209 -13 -44 18 -99 67 -120 106 -19 38 -35 116 -29 142 6 21 12
22 93 22 74 1 94 5 137 27 55 29 65 28 65 -5z m-406 -136 c7 -55 45 -132 84
-174 31 -32 25 -48 -28 -85 -71 -48 -158 -51 -222 -8 -32 21 -33 24 -33 92 1
38 4 90 8 115 7 43 11 48 40 53 18 3 55 17 82 30 28 14 53 25 56 25 4 1 9 -21
13 -48z m1267 -226 c26 -55 70 -126 96 -157 44 -53 135 -130 165 -140 19 -7
-165 -342 -187 -340 -12 1 -58 160 -85 296 -36 179 -72 518 -49 466 6 -14 33
-70 60 -125z m-708 -148 c-77 -78 -170 -148 -189 -141 -71 25 -124 103 -124
181 l0 48 103 0 c96 0 108 2 163 30 l59 31 13 -55 12 -55 -37 -39z m-429 -21
c4 -19 18 -55 31 -81 l25 -47 -20 -33 c-25 -41 -92 -75 -146 -75 -89 1 -164
80 -164 174 l0 49 42 -6 c52 -7 130 7 177 32 49 25 48 25 55 -13z m711 -53
c-8 -73 10 -280 34 -398 11 -49 18 -91 16 -93 -1 -2 -36 50 -78 115 -77 122
-172 292 -166 297 2 1 27 17 56 35 29 18 71 48 95 67 24 18 45 34 46 34 2 0 1
-26 -3 -57z m284 -175 c36 -90 110 -247 142 -300 l22 -36 -71 -94 c-115 -150
-119 -154 -126 -132 -14 47 -24 377 -16 499 5 72 9 134 10 139 0 17 8 2 39
-76z m-1175 -116 l60 -16 -80 -38 c-43 -21 -84 -38 -90 -38 -7 0 -16 32 -23
75 -16 112 -17 111 32 70 26 -23 64 -42 101 -53z"/>
<path d="M3229 5253 c-21 -25 -112 -80 -169 -103 -90 -35 -180 -44 -270 -26
l-79 16 -58 -30 c-152 -79 -324 -81 -476 -3 l-48 24 49 -63 c81 -104 150 -215
221 -358 141 -285 192 -518 192 -874 -1 -261 -41 -536 -112 -761 -17 -55 -41
-130 -53 -167 -11 -38 -26 -68 -31 -68 -18 0 -216 86 -290 126 -38 21 -166 91
-284 155 l-215 118 -61 -117 c-84 -161 -178 -308 -251 -396 l-62 -74 26 -24
c58 -53 237 -192 396 -308 143 -104 556 -383 608 -411 14 -8 22 0 43 46 38 80
97 149 147 174 61 29 140 28 194 -3 31 -18 46 -21 65 -14 42 16 133 4 176 -23
32 -21 43 -23 74 -15 98 25 203 -45 247 -166 23 -65 28 -241 8 -331 -33 -148
-108 -266 -198 -311 -58 -29 -112 -33 -163 -11 -32 13 -39 12 -78 -5 -59 -27
-124 -26 -180 4 l-46 25 -7 -32 c-20 -90 7 -200 64 -261 29 -30 115 -76 145
-76 13 0 17 -8 17 -33 0 -68 29 -137 79 -187 115 -115 287 -106 454 23 21 16
39 28 41 26 2 -2 11 -37 20 -78 22 -99 67 -181 137 -245 73 -68 135 -91 224
-84 148 12 279 149 315 329 18 86 15 84 69 45 93 -68 156 -91 251 -91 68 0 93
5 125 22 85 45 144 138 145 226 0 39 3 47 19 47 58 0 157 74 193 143 25 50 33
130 19 183 l-11 41 -48 -24 c-39 -20 -57 -24 -104 -20 -31 3 -70 13 -87 23
-24 14 -33 15 -44 5 -8 -6 -38 -14 -66 -18 -101 -12 -196 54 -259 180 -51 104
-67 176 -66 312 0 102 3 129 23 180 46 116 139 179 239 159 42 -9 50 -7 81 15
37 28 143 41 177 23 15 -8 28 -5 59 14 51 31 138 33 194 5 51 -26 104 -87 142
-163 17 -35 33 -65 35 -67 3 -3 223 139 384 248 201 136 399 283 573 424 l97
80 -48 51 c-75 80 -207 287 -301 473 l-31 63 -63 -35 c-356 -201 -682 -365
-723 -365 -12 0 -88 224 -123 365 -62 247 -91 567 -73 796 21 274 75 476 186
704 61 125 191 332 242 386 33 35 30 42 -8 19 -65 -37 -158 -60 -243 -60 -92
0 -164 18 -246 62 -53 28 -59 29 -100 17 -64 -18 -184 -15 -254 5 -79 24 -130
50 -187 97 l-46 39 -36 -49 c-71 -97 -216 -214 -329 -267 -94 -43 -161 -29
-299 64 -82 56 -180 146 -225 209 -28 39 -32 41 -44 26z m1445 -450 c88 -62
116 -185 62 -277 -83 -143 -373 -189 -593 -95 -91 39 -214 142 -257 216 -4 7
24 -2 61 -19 60 -28 78 -32 158 -33 141 0 181 17 291 132 126 130 179 145 278
76z m-1775 23 c15 -8 57 -47 92 -87 74 -84 118 -114 196 -134 102 -27 218 -13
300 35 19 11 38 19 40 16 3 -3 -34 -45 -83 -93 -64 -64 -108 -98 -156 -121
-119 -58 -288 -77 -416 -47 -78 18 -111 36 -164 83 -50 45 -68 86 -68 149 1
141 150 255 259 199z m707 -424 c-38 -204 -147 -360 -301 -433 -104 -50 -183
-34 -284 57 -92 83 -134 172 -96 204 9 7 59 17 113 22 158 14 262 45 345 103
45 31 150 142 190 201 l42 62 3 -70 c2 -39 -4 -104 -12 -146z m243 131 c58
-81 142 -161 204 -197 69 -40 155 -64 289 -79 70 -8 131 -18 137 -22 17 -10
13 -62 -8 -104 -25 -48 -126 -142 -183 -170 -64 -31 -113 -27 -196 15 -138 68
-239 202 -282 370 -22 85 -39 286 -23 269 5 -5 33 -42 62 -82z m-98 -332 c17
-13 23 -29 23 -56 0 -67 -72 -99 -121 -53 -68 64 25 168 98 109z m-118 -287
c50 -17 92 -15 165 7 40 13 46 12 89 -11 64 -34 88 -83 87 -175 -1 -117 -70
-235 -187 -321 -33 -24 -69 -44 -82 -44 -38 0 -141 77 -189 141 -124 164 -117
355 14 408 35 14 50 13 103 -5z m-408 -309 c75 -74 -35 -185 -112 -113 -50 47
-12 138 57 138 19 0 40 -9 55 -25z m1053 9 c32 -22 43 -57 31 -94 -13 -36 -36
-50 -83 -50 -25 0 -40 7 -55 26 -59 75 30 172 107 118z m-1367 -214 c29 -109
28 -293 -1 -350 -39 -76 -124 -86 -157 -20 -23 45 -15 95 32 201 53 117 75
193 75 264 l1 50 15 -35 c9 -19 24 -69 35 -110z m1644 -180 c48 -110 56 -139
52 -172 -10 -75 -78 -112 -133 -73 -75 52 -83 271 -17 467 l28 82 7 -85 c5
-74 14 -104 63 -219z m-515 -130 c-15 -76 -11 -124 20 -245 34 -133 37 -185
13 -226 -36 -60 -114 -54 -148 11 -38 73 -8 257 66 408 28 57 52 102 54 100 2
-1 -1 -23 -5 -48z m-625 -51 c59 -116 97 -299 76 -375 -22 -83 -100 -115 -147
-61 -40 47 -41 88 -4 229 29 112 32 138 27 214 -5 95 -5 95 48 -7z m-295 -439
c65 -198 178 -406 317 -585 66 -84 256 -303 264 -304 7 -1 167 181 249 284
195 245 336 537 385 795 28 147 24 144 52 50 27 -96 27 -107 -19 -248 -87
-274 -229 -511 -469 -785 -57 -65 -125 -145 -151 -177 l-46 -59 -40 52 c-22
29 -72 88 -112 132 -294 326 -462 615 -545 939 -14 57 -14 62 12 145 l26 86
19 -102 c10 -56 36 -156 58 -223z m-1244 286 c28 -13 54 -28 57 -32 3 -5 -25
-8 -61 -6 -49 2 -76 -2 -102 -15 -32 -16 -35 -22 -34 -60 1 -52 -24 -66 -65
-36 -85 64 -20 172 104 173 32 0 69 -9 101 -24z m3832 10 c71 -37 89 -109 38
-152 -30 -26 -56 -30 -74 -12 -8 8 -9 15 -1 25 6 7 8 24 5 37 -9 36 -78 60
-156 54 -51 -4 -58 -2 -47 9 43 43 182 66 235 39z m-3544 -221 c31 -14 56 -30
56 -33 0 -4 -38 -7 -84 -7 -70 0 -89 -4 -113 -21 -30 -23 -41 -57 -24 -78 16
-20 -12 -40 -44 -32 -41 10 -65 41 -65 84 0 109 136 152 274 87z m3300 6 c36
-22 56 -58 56 -97 0 -30 -50 -84 -77 -84 -28 0 -45 20 -32 37 6 7 8 24 5 39
-10 40 -82 67 -167 62 -72 -4 -77 2 -26 29 90 47 179 52 241 14z m-1743 -235
c6 -32 24 -101 40 -153 16 -53 29 -116 29 -140 0 -111 -101 -162 -155 -79 -32
48 -30 96 8 223 31 99 40 143 58 258 1 6 4 -3 6 -20 2 -16 8 -56 14 -89z
m-1260 45 c30 -11 69 -31 86 -44 l32 -23 -87 4 c-104 5 -165 -9 -204 -48 -31
-31 -37 -74 -12 -88 14 -8 14 -10 -1 -25 -28 -28 -73 -21 -111 17 -28 28 -34
42 -34 75 0 73 44 125 128 152 41 13 141 4 203 -20z m2693 18 c21 -6 57 -28
80 -49 39 -36 41 -42 41 -95 0 -51 -3 -59 -33 -86 -57 -51 -144 -32 -108 23
14 22 14 27 -2 58 -26 52 -90 73 -210 68 -102 -3 -103 0 -10 48 82 42 168 54
242 33z m-1869 -1343 c-40 -212 -177 -344 -272 -262 -22 19 -28 32 -28 65 0
54 36 90 148 148 60 31 100 60 125 89 19 24 37 42 39 40 2 -1 -3 -38 -12 -80z
m896 5 c13 -9 61 -37 108 -62 95 -51 131 -91 131 -146 0 -76 -89 -109 -161
-60 -69 46 -134 177 -145 291 l-6 61 25 -34 c14 -18 36 -41 48 -50z m-460
-161 c6 -30 36 -111 66 -180 43 -98 54 -132 49 -158 -12 -76 -72 -118 -155
-109 -36 4 -52 13 -78 41 -48 52 -45 98 13 223 43 93 65 159 80 248 6 31 8 35
11 15 2 -14 8 -50 14 -80z"/>
<path d="M2487 2001 c-71 -63 -118 -195 -119 -335 0 -101 15 -161 52 -198 43
-42 93 -33 141 26 15 18 16 17 27 -26 22 -87 77 -129 135 -104 34 14 97 78 97
99 1 7 12 -10 26 -36 32 -62 65 -76 114 -50 49 26 93 89 121 174 32 98 35 274
5 329 -30 57 -46 70 -86 70 -29 0 -44 -8 -74 -39 l-39 -39 -26 51 c-45 90
-101 99 -172 28 l-38 -38 -15 38 c-33 81 -90 101 -149 50z"/>
<path d="M4807 2009 c-15 -11 -32 -38 -38 -60 -7 -21 -13 -39 -14 -39 -1 0
-23 20 -47 45 -35 35 -53 45 -78 45 -38 0 -83 -42 -100 -96 l-12 -35 -37 40
c-31 34 -44 41 -75 41 -85 0 -131 -129 -106 -296 22 -141 76 -248 144 -280 45
-22 83 -4 112 53 l21 42 32 -45 c19 -27 46 -51 68 -61 33 -13 40 -13 69 0 34
16 74 85 74 126 0 22 2 21 40 -13 49 -44 86 -47 123 -10 39 39 52 88 52 199
-1 154 -54 295 -131 346 -37 24 -65 24 -97 -2z"/>
<path d="M1493 1939 c-129 -41 -207 -140 -207 -262 1 -76 26 -130 85 -180 63
-55 130 -60 178 -15 l22 20 -21 24 c-18 18 -21 30 -16 57 8 42 79 112 122 120
159 31 284 9 471 -83 51 -25 93 -43 93 -39 0 15 -91 128 -141 174 -183 172
-406 241 -586 184z"/>
<path d="M5657 1944 c-73 -17 -186 -73 -254 -126 -63 -48 -181 -172 -206 -216
l-19 -33 89 45 c256 129 489 139 577 24 29 -39 35 -98 11 -118 -22 -18 -19
-28 18 -50 41 -25 77 -25 127 0 105 54 150 200 96 315 -66 142 -244 206 -439
159z"/>
<path d="M3124 486 c-49 -22 -74 -61 -74 -118 0 -43 4 -54 34 -84 30 -30 40
-34 84 -34 63 0 107 33 122 91 26 94 -78 184 -166 145z"/>
<path d="M4193 489 c-92 -27 -111 -167 -31 -223 28 -20 100 -21 137 -1 30 15
61 69 61 105 0 32 -28 87 -54 103 -31 21 -76 27 -113 16z"/>
<path d="M3659 175 c-54 -30 -60 -107 -12 -145 45 -35 105 -23 131 27 41 76
-44 160 -119 118z"/>
</g>
</svg>
