<?xml version="1.0" encoding="UTF-8" standalone="no"?>
<svg
   xmlns:dc="http://purl.org/dc/elements/1.1/"
   xmlns:cc="http://creativecommons.org/ns#"
   xmlns:rdf="http://www.w3.org/1999/02/22-rdf-syntax-ns#"
   xmlns:svg="http://www.w3.org/2000/svg"
   xmlns="http://www.w3.org/2000/svg"
   id="svg6"
   preserveAspectRatio="xMidYMid meet"
   viewBox="0 0 785.000000 1280.000000"
   height="1280.000000pt"
   width="785.000000pt"
   version="1.0">
  <metadata
     id="metadata12">
    <rdf:RDF>
      <cc:Work
         rdf:about="">
        <dc:format>image/svg+xml</dc:format>
        <dc:type
           rdf:resource="http://purl.org/dc/dcmitype/StillImage" />
      </cc:Work>
    </rdf:RDF>
  </metadata>
  <defs
     id="defs10" />
  <g
     id="g4"
     stroke="none"
     fill="#000000"
     transform="translate(0.000000,1280.000000) scale(0.100000,-0.100000)">
    <path
       id="path2"
       d="M3675 11321 c-426 -78 -759 -277 -980 -586 -302 -422 -371 -861 -209 -1326 76 -220 158 -345 346 -530 93 -91 138 -142 138 -157 0 -15 -20 -35 -72 -71 -85 -57 -106 -78 -145 -146 -30 -52 -32 -53 -187 -126 -98 -45 -175 -109 -209 -174 -19 -34 -22 -56 -22 -150 0 -116 7 -140 61 -212 66 -88 275 -187 525 -248 78 -19 146 -40 150 -47 4 -6 5 -34 3 -62 -2 -28 -8 -195 -14 -371 -21 -658 -35 -826 -82 -1030 -47 -205 -162 -486 -257 -633 -23 -35 -97 -122 -165 -192 -197 -205 -248 -298 -249 -450 0 -61 6 -103 22 -149 12 -35 20 -69 18 -76 -3 -6 -82 -67 -177 -134 -301 -215 -456 -360 -569 -532 -93 -141 -150 -328 -138 -452 4 -45 1 -52 -38 -100 -96 -120 -169 -256 -202 -377 -28 -101 -25 -329 5 -435 30 -103 95 -240 160 -334 94 -138 337 -411 442 -495 371 -303 951 -505 1660 -578 164 -17 706 -17 870 0 709 73 1289 275 1660 578 105 84 348 357 442 495 65 94 130 231 160 334 30 106 33 334 5 435 -32 120 -109 263 -199 372 -39 47 -39 47 -43 150 -6 155 -45 270 -140 414 -112 167 -268 312 -565 525 -95 67 -174 128 -177 134 -2 7 6 41 18 76 16 46 22 88 22 149 -1 152 -52 245 -249 450 -68 70 -142 157 -165 192 -95 147 -210 428 -257 633 -47 203 -60 367 -82 1025 -6 173 -12 340 -14 371 -2 31 -1 61 3 68 4 6 72 27 150 46 250 61 459 160 525 248 54 72 61 96 61 212 0 94 -3 116 -22 150 -34 65 -111 129 -209 174 -155 73 -157 74 -187 126 -39 68 -60 89 -144 146 -53 36 -73 56 -73 71 0 15 45 66 138 157 229 226 336 421 404 735 29 135 32 400 5 523 -78 364 -324 740 -608 929 -167 112 -378 200 -586 245 -142 30 -420 36 -558 10z" />
  </g>
</svg>
