<?xml version="1.0" standalone="no"?>
<!DOCTYPE svg PUBLIC "-//W3C//DTD SVG 20010904//EN"
 "http://www.w3.org/TR/2001/REC-SVG-20010904/DTD/svg10.dtd">
<svg version="1.0" xmlns="http://www.w3.org/2000/svg"
 width="860.000000pt" height="827.000000pt" viewBox="0 0 860.000000 827.000000"
 preserveAspectRatio="xMidYMid meet">
<metadata>
Created by potrace 1.16, written by Peter Selinger 2001-2019
</metadata>
<g transform="translate(0.000000,827.000000) scale(0.100000,-0.100000)"
fill="#000000" stroke="none">
<path d="M4225 7859 c-208 -19 -402 -153 -496 -344 -51 -105 -69 -180 -69
-291 0 -293 181 -540 453 -619 31 -9 57 -20 57 -25 0 -30 -90 -587 -150 -925
-106 -599 -355 -1963 -363 -1989 -4 -13 -39 75 -142 360 -212 583 -780 2208
-787 2251 -2 10 15 22 46 34 167 67 313 238 361 424 20 78 20 233 0 310 -59
222 -211 385 -430 461 -70 25 -95 28 -200 28 -108 0 -128 -3 -205 -30 -109
-38 -183 -88 -264 -175 -112 -121 -166 -263 -166 -439 0 -120 20 -202 71 -301
89 -172 253 -289 458 -330 l64 -12 -7 -76 c-11 -137 -45 -720 -61 -1036 -23
-468 -84 -1504 -91 -1553 -4 -24 -11 -41 -17 -39 -43 14 -419 751 -909 1782
l-109 230 22 15 c137 91 243 239 283 395 20 75 20 221 1 303 -27 115 -81 208
-175 303 -132 132 -273 192 -455 192 -111 0 -193 -20 -296 -74 -232 -121 -371
-389 -338 -652 39 -315 304 -565 605 -570 l82 -2 16 -102 c23 -148 70 -516
116 -918 86 -743 154 -1251 174 -1299 18 -42 111 -169 216 -296 196 -238 331
-429 423 -600 25 -47 98 -201 161 -342 l115 -257 -76 -168 c-138 -310 -206
-498 -201 -559 3 -35 7 -39 88 -85 187 -106 570 -221 865 -258 44 -6 368 -16
720 -22 674 -13 1868 0 2100 21 237 23 644 148 870 268 l70 37 -2 50 c-2 64
-48 195 -168 479 -61 145 -94 237 -91 250 12 47 234 566 268 626 48 86 218
319 360 492 138 170 229 296 263 363 20 41 29 90 50 265 15 118 53 418 86 665
53 399 169 1345 169 1378 0 10 23 13 83 14 162 2 317 74 441 203 114 120 171
248 182 410 8 110 -12 205 -67 318 -34 70 -58 102 -128 172 -132 131 -274 192
-451 193 -171 1 -316 -59 -440 -181 -125 -125 -187 -261 -197 -432 -10 -188
53 -358 181 -486 39 -39 84 -79 99 -90 l28 -19 -114 -245 c-277 -594 -900
-1852 -904 -1825 -1 11 -16 268 -33 570 -34 618 -105 1798 -120 2009 -6 76 -9
140 -8 141 2 1 39 9 83 18 255 53 451 251 501 506 42 213 -21 407 -186 572
-68 69 -102 94 -170 128 -158 77 -310 89 -475 37 -208 -66 -381 -260 -431
-482 -21 -96 -15 -240 15 -334 44 -141 155 -280 280 -350 34 -19 69 -40 78
-46 15 -10 5 -42 -87 -310 -274 -800 -742 -2126 -786 -2233 -8 -19 -17 -32
-20 -29 -18 19 -524 2811 -524 2897 0 4 38 20 84 35 105 34 185 87 267 174
241 255 232 642 -19 889 -139 136 -323 200 -527 182z m540 -4944 c489 -44 957
-139 1385 -282 380 -126 479 -197 428 -307 -29 -65 -131 -52 -483 59 -714 226
-975 270 -1695 282 -387 6 -702 -6 -870 -32 -144 -23 -455 -91 -641 -140 -159
-43 -237 -66 -564 -169 -82 -27 -175 -50 -205 -53 -54 -5 -57 -4 -88 31 -67
76 -30 148 112 216 44 21 151 63 236 93 464 164 978 271 1470 307 80 6 168 12
195 14 104 8 557 -4 720 -19z m155 -739 c348 -46 793 -179 1105 -331 208 -100
271 -162 245 -239 -29 -90 -101 -79 -523 78 -375 140 -572 187 -983 236 -477
56 -873 47 -1234 -30 -269 -57 -643 -178 -945 -306 -82 -35 -156 -64 -163 -64
-27 0 -71 41 -92 84 -20 41 -20 47 -6 74 42 81 257 190 610 311 343 117 541
158 931 190 72 6 148 13 170 15 22 2 202 3 400 1 266 -2 393 -7 485 -19z
m-205 -727 c458 -31 980 -131 1384 -265 168 -55 220 -83 246 -134 23 -44 18
-70 -19 -104 -48 -46 -162 -74 -192 -47 -16 14 -163 66 -309 109 -465 136
-831 196 -1358 224 -329 17 -673 -4 -1022 -63 -255 -43 -746 -160 -905 -215
-183 -63 -199 -66 -257 -54 -68 15 -103 53 -103 114 0 29 6 48 18 59 66 60
503 194 887 272 534 108 1067 142 1630 104z"/>
</g>
</svg>
