<?xml version="1.0" standalone="no"?>
<!DOCTYPE svg PUBLIC "-//W3C//DTD SVG 20010904//EN"
 "http://www.w3.org/TR/2001/REC-SVG-20010904/DTD/svg10.dtd">
<svg version="1.0" xmlns="http://www.w3.org/2000/svg"
 width="203.000000pt" height="248.000000pt" viewBox="0 0 203.000000 248.000000"
 preserveAspectRatio="xMidYMid meet">
<metadata>
Created by potrace 1.16, written by Peter Selinger 2001-2019
</metadata>
<g transform="translate(0.000000,248.000000) scale(0.100000,-0.100000)"
fill="#000000" stroke="none">
<path d="M874 2373 c-31 -4 -32 -5 -26 -46 10 -66 8 -120 -5 -124 -7 -3 -14
19 -18 62 -11 98 -27 108 -125 79 -96 -28 -100 -34 -100 -129 0 -45 3 -110 7
-145 5 -55 10 -65 35 -79 15 -9 28 -23 28 -32 0 -9 7 -22 15 -29 8 -7 15 -20
15 -30 0 -9 10 -25 21 -36 21 -18 21 -25 16 -174 -6 -166 -20 -280 -68 -540
-38 -209 -76 -372 -100 -424 -10 -23 -19 -61 -19 -85 0 -37 -6 -50 -39 -86
-22 -24 -44 -60 -49 -82 -13 -51 -8 -239 7 -257 20 -23 126 -66 223 -88 80
-19 123 -22 313 -22 244 0 358 17 472 69 103 47 104 49 99 192 -5 131 -11 149
-61 203 -26 27 -34 46 -38 85 -2 28 -16 77 -30 110 -65 152 -167 750 -167 980
0 109 1 116 33 176 17 34 42 66 55 72 29 14 32 28 35 180 3 158 14 144 -164
193 -33 9 -52 -20 -58 -92 -8 -94 -27 -80 -23 17 3 72 2 77 -20 83 -24 6 -211
6 -264 -1z m497 -1724 c11 -5 17 -14 14 -19 -16 -25 -219 -65 -276 -53 -36 7
-27 30 14 38 18 4 46 13 62 21 49 22 156 30 186 13z"/>
</g>
</svg>
