<?xml version="1.0" standalone="no"?>
<!DOCTYPE svg PUBLIC "-//W3C//DTD SVG 20010904//EN"
 "http://www.w3.org/TR/2001/REC-SVG-20010904/DTD/svg10.dtd">
<svg version="1.0" xmlns="http://www.w3.org/2000/svg"
 width="512.000000pt" height="512.000000pt" viewBox="0 0 512.000000 512.000000"
 preserveAspectRatio="xMidYMid meet">

<g transform="translate(0.000000,512.000000) scale(0.100000,-0.100000)"
fill="#000000" stroke="none">
<path d="M1324 5106 c-143 -35 -253 -158 -275 -308 -12 -83 -12 -4393 0 -4476
23 -153 132 -274 280 -308 83 -20 2379 -20 2462 0 148 34 257 155 280 308 12
83 12 4393 0 4476 -23 153 -132 274 -280 308 -79 19 -2390 19 -2467 0z m2546
-2496 l0 -1820 -1310 0 -1310 0 0 1820 0 1820 1310 0 1310 0 0 -1820z"/>
<path d="M2430 4029 c-234 -24 -474 -137 -654 -309 -132 -126 -228 -270 -286
-427 -204 -560 45 -1171 582 -1428 250 -120 543 -145 795 -68 110 33 129 33
229 -5 152 -57 325 -66 478 -23 86 24 121 55 121 110 0 36 -8 48 -90 133 -50
51 -101 114 -114 139 l-24 46 45 69 c190 288 239 647 133 981 -91 287 -310
538 -589 673 -128 62 -243 95 -381 109 -120 12 -123 12 -245 0z m290 -210
c215 -34 433 -164 576 -344 71 -90 147 -246 176 -360 31 -126 31 -324 0 -445
-26 -100 -105 -267 -160 -337 -50 -62 -62 -86 -62 -118 0 -32 57 -157 100
-220 18 -26 30 -48 28 -49 -1 -2 -36 0 -76 5 -87 9 -158 31 -228 70 -28 16
-60 29 -72 29 -11 0 -57 -13 -101 -30 -135 -49 -226 -63 -380 -57 -160 6 -242
26 -376 92 -226 111 -399 313 -478 555 -155 477 108 1004 585 1170 47 16 109
34 139 39 76 12 252 13 329 0z"/>
<path d="M1901 3128 c-57 -29 -82 -64 -88 -120 -10 -88 32 -130 174 -174 88
-27 112 -48 94 -83 -22 -39 -96 -42 -167 -6 -60 30 -88 32 -108 4 -22 -32 -6
-60 55 -93 76 -42 184 -48 248 -14 66 34 86 67 86 140 0 58 -2 62 -39 94 -25
22 -69 44 -124 61 -101 33 -126 59 -93 92 27 27 69 27 131 0 56 -24 95 -20
105 11 18 56 -50 100 -165 107 -54 4 -73 0 -109 -19z"/>
<path d="M2340 3143 c-37 -13 -40 -32 -40 -260 0 -210 1 -224 20 -243 25 -25
52 -26 73 -2 13 14 17 45 19 156 l3 138 48 -76 c83 -130 103 -131 185 -8 l57
85 3 -138 c2 -112 6 -143 19 -157 21 -24 48 -23 73 2 19 19 20 33 20 243 0
239 -2 250 -50 262 -39 9 -68 -20 -140 -139 -36 -58 -67 -106 -70 -106 -3 0
-34 48 -70 106 -78 129 -105 153 -150 137z"/>
<path d="M3021 3128 c-58 -30 -83 -65 -88 -125 -7 -86 34 -126 174 -169 88
-27 112 -48 94 -83 -22 -39 -96 -42 -167 -6 -60 30 -88 32 -108 4 -22 -32 -6
-60 55 -93 76 -42 184 -48 248 -14 66 34 86 67 86 140 0 58 -2 62 -39 94 -27
23 -67 43 -123 60 -94 29 -122 54 -99 89 19 29 74 31 135 4 57 -24 96 -20 106
11 18 56 -50 100 -165 107 -54 4 -73 0 -109 -19z"/>
</g>
</svg>
